<?xml version="1.0" encoding="utf-8"?>
<!-- Generator: Adobe Illustrator 15.1.0, SVG Export Plug-In . SVG Version: 6.00 Build 0)  -->
<!DOCTYPE svg PUBLIC "-//W3C//DTD SVG 1.1//EN" "http://www.w3.org/Graphics/SVG/1.1/DTD/svg11.dtd">
<svg version="1.1" id="Layer_1" xmlns="http://www.w3.org/2000/svg" xmlns:xlink="http://www.w3.org/1999/xlink" x="0px" y="0px"
	 width="72px" height="72px" viewBox="0 0 72 72" enable-background="new 0 0 72 72" xml:space="preserve">
<g>
	<path d="M48.825,1.8v8.283c0,3.424-1.337,6.646-3.749,9.059L20.887,43.196c-3.823,3.817-5.928,8.826-6.161,14.179h-8.65L18.9,70.2
		l12.825-12.825h-8.458c0.226-3.072,1.462-5.929,3.657-8.133l24.189-24.046c4.041-4.041,6.262-9.402,6.262-15.113V1.8H48.825z"/>
	<path d="M57.275,57.375c-0.234-5.352-2.347-10.361-6.171-14.194l-4.767-4.734l-6.062,6.028l4.792,4.769
		c2.205,2.195,3.44,5.06,3.665,8.133h-8.457L53.1,70.2l12.825-12.825H57.275z"/>
</g>
</svg>
