<?xml version="1.0" encoding="utf-8"?>
<!-- Generator: Adobe Illustrator 15.1.0, SVG Export Plug-In . SVG Version: 6.00 Build 0)  -->
<!DOCTYPE svg PUBLIC "-//W3C//DTD SVG 1.1//EN" "http://www.w3.org/Graphics/SVG/1.1/DTD/svg11.dtd">
<svg version="1.1" id="Layer_1" xmlns="http://www.w3.org/2000/svg" xmlns:xlink="http://www.w3.org/1999/xlink" x="0px" y="0px"
	 width="72px" height="72px" viewBox="0 0 72 72" enable-background="new 0 0 72 72" xml:space="preserve">
<g>
	<path d="M68.172,5.337H3.829C2.706,5.337,1.8,6.21,1.8,7.296v38.543c0,1.078,0.905,1.955,2.029,1.955h64.343
		c1.123,0,2.028-0.877,2.028-1.955V7.296C70.2,6.21,69.295,5.337,68.172,5.337z M65.482,43.076H6.517V10.055h58.965V43.076z"/>
	<rect x="37.18" y="33.642" width="14.151" height="2.357"/>
	<rect x="37.18" y="28.924" width="21.228" height="2.359"/>
	<rect x="37.18" y="14.771" width="21.228" height="4.718"/>
	<rect x="37.18" y="24.207" width="21.228" height="2.358"/>
	<path d="M20.669,33.642c5.21,0,9.434-4.225,9.434-9.434c0-5.211-4.224-9.436-9.434-9.436c-5.21,0-9.435,4.225-9.435,9.436
		C11.234,29.417,15.459,33.642,20.669,33.642z M21.353,24.891h8.04c-0.332,4.28-3.759,7.707-8.04,8.04V24.891z"/>
	<polygon points="32.154,50.152 20.362,66.663 25.08,66.663 34.82,53.026 34.82,66.663 39.537,66.663 39.537,53.026 49.278,66.663 
		53.996,66.663 42.204,50.152 	"/>
</g>
</svg>
