<?xml version="1.0" encoding="utf-8"?>
<!-- Generator: Adobe Illustrator 15.1.0, SVG Export Plug-In . SVG Version: 6.00 Build 0)  -->
<!DOCTYPE svg PUBLIC "-//W3C//DTD SVG 1.1//EN" "http://www.w3.org/Graphics/SVG/1.1/DTD/svg11.dtd">
<svg version="1.1" id="Layer_1" xmlns="http://www.w3.org/2000/svg" xmlns:xlink="http://www.w3.org/1999/xlink" x="0px" y="0px"
	 width="77.273px" height="100px" viewBox="0 0 77.273 100" enable-background="new 0 0 77.273 100" xml:space="preserve">
<rect x="-29.558" y="12.121" fill="none" width="135" height="149.723"/>
<path d="M69.442,66.263c0,17.433-14.21,31.502-31.499,31.502c-17.432,0-31.501-14.069-31.501-31.502
	c0-8.798,3.521-16.703,9.379-22.418V24.357c0-12.165,9.967-22.124,22.122-22.124s21.972,9.959,21.972,22.124v19.487
	C65.773,49.56,69.442,57.465,69.442,66.263z M25.341,62.742h-9.957l-1.466,3.519l1.466,3.517h9.957V62.742z M31.495,54.981
	l-7.181-7.18l-3.52,1.313l-1.455,3.67l7.172,7.174L31.495,54.981z M26.512,72.415l-7.172,7.323l1.455,3.52l3.52,1.312l7.181-7.171
	L26.512,72.415z M27.69,36.52c6.438-2.349,13.473-2.349,20.371,0V24.355c0-5.563-4.547-10.252-10.118-10.252
	c-5.715,0-10.253,4.689-10.253,10.252V36.52z M41.311,53.81v-9.965l-3.52-1.464l-3.519,1.464v9.965H41.311z M34.273,78.565v9.962
	l3.519,1.465l3.52-1.465v-9.962H34.273L34.273,78.565z M48.935,59.958l7.175-7.174l-1.312-3.52l-3.67-1.463l-7.175,7.18
	L48.935,59.958z M43.953,77.399l7.175,7.171l3.67-1.312l1.312-3.52l-7.175-7.323L43.953,77.399z M50.098,69.777h9.967l1.466-3.515
	l-1.466-3.521h-9.967V69.777z"/>
</svg>
