<?xml version="1.0" encoding="utf-8"?>
<!-- Generator: Adobe Illustrator 15.1.0, SVG Export Plug-In . SVG Version: 6.00 Build 0)  -->
<!DOCTYPE svg PUBLIC "-//W3C//DTD SVG 1.1//EN" "http://www.w3.org/Graphics/SVG/1.1/DTD/svg11.dtd">
<svg version="1.1" id="Layer_1" xmlns="http://www.w3.org/2000/svg" xmlns:xlink="http://www.w3.org/1999/xlink" x="0px" y="0px"
	 width="72px" height="72px" viewBox="0 0 72 72" enable-background="new 0 0 72 72" xml:space="preserve">
<g>
	<g id="g2995" transform="matrix(-0.02870387,0,0,0.02870387,-19.460863,-110.16905)">
		<g id="g3123" transform="matrix(0.5,0.8660254,-0.8660254,0.5,4126.145,3849.6108)">
		</g>
		<path id="path3989" d="M-2357.506,4561.089c54.469,91.366,172.593,121.152,263.805,66.751
			c91.383-54.435,121.492-172.576,67.023-263.958c-54.503-91.434-172.899-121.322-264.214-66.87
			C-2382.172,4351.396-2411.975,4469.689-2357.506,4561.089z M-1808.411,4528.734c-14.187,0.017-28.17,3.725-40.52,10.717
			l-454.889,258.021c-25.754,14.595-41.677,41.932-41.643,71.531l0.136,275.917l-221.108,0.136c-0.782,0-1.531,0-2.313,0
			c-45.385,0.68-81.652,38.002-81.006,83.421c0.681,45.419,38.037,81.72,83.456,80.972l303.271-0.136h0.034
			c45.385-0.034,82.163-36.88,82.129-82.265l-0.102-268.279l76.753,6.771l6.838,0.612l227.045,377.183l-329.927,210.493
			c-23.679,15.106-38.002,41.303-38.002,69.336v516.417c0,0.851,0,1.565,0,2.381c0.68,45.385,38.002,81.687,83.387,81.074
			c45.419-0.715,81.72-37.968,81.108-83.456V5668.21l359.372-229.307c12.027-7.655,21.825-18.406,28.459-31.028
			c2.518,1.157,5.12,2.178,7.723,3.096l4.627,385.433c0.527,44.977,37.169,81.176,82.197,81.176h516.502
			c0.715,0.034,1.514,0.034,2.28,0c45.419-0.613,81.703-37.935,81.074-83.354c-0.629-45.419-38.002-81.687-83.354-81.074h-435.258
			l-5.256-436.772c-0.17-14.664-4.253-29.021-11.857-41.541l-268.534-443.559l1.871-4.423l39.908-93.713l221.584-0.085
			l0.153,221.074c0,0.766,0,1.531,0,2.296c0.664,45.402,38.02,81.687,83.439,81.006c45.385-0.663,81.635-37.985,80.955-83.421
			l-0.153-303.321c-0.034-45.385-36.897-82.163-82.282-82.112L-1808.411,4528.734z"/>
	</g>
	<g>
		<path d="M50.589,24.25l-0.327,6.876c-0.044,1.591-0.067,3.217-0.067,4.872c0,18.708,2.865,33.876,6.402,33.876
			c3.535,0,6.403-15.167,6.403-33.876c0-18.706-2.868-33.872-6.403-33.872C53.84,2.127,51.493,11.334,50.589,24.25z"/>
	</g>
</g>
</svg>
